<?xml version="1.0" encoding="UTF-8" standalone="no"?>
<!DOCTYPE svg PUBLIC "-//W3C//DTD SVG 1.1//EN" "http://www.w3.org/Graphics/SVG/1.1/DTD/svg11.dtd">
<svg width="100%" height="100%" viewBox="0 0 439 321" version="1.1" xmlns="http://www.w3.org/2000/svg" xmlns:xlink="http://www.w3.org/1999/xlink" xml:space="preserve" xmlns:serif="http://www.serif.com/" style="fill-rule:evenodd;clip-rule:evenodd;stroke-linejoin:round;stroke-miterlimit:2;">
    <g transform="matrix(1,0,0,1,-2.73521,-2.73698)">
        <path d="M228.449,271.425C228.449,264.293 222.662,258.513 215.536,258.513L15.642,258.513C8.515,258.513 2.735,264.293 2.735,271.425L2.735,310.152C2.735,317.275 8.515,323.063 15.642,323.063L215.536,323.063C222.662,323.063 228.449,317.275 228.449,310.152L228.449,271.425ZM441.445,146.036C441.445,138.905 435.658,133.124 428.53,133.124L274.369,133.124C267.241,133.124 261.46,138.905 261.46,146.036L261.46,184.763C261.46,191.886 267.241,197.675 274.369,197.675L428.53,197.675C435.658,197.675 441.445,191.886 441.445,184.763L441.445,146.036ZM228.449,146.036C228.449,138.905 222.662,133.124 215.536,133.124L15.642,133.124C8.515,133.124 2.735,138.905 2.735,146.036L2.735,184.763C2.735,191.886 8.515,197.675 15.642,197.675L215.536,197.675C222.662,197.675 228.449,191.886 228.449,184.763L228.449,146.036ZM228.449,16.533C228.449,9.401 222.662,3.621 215.536,3.621L15.642,3.621C8.515,3.621 2.735,9.401 2.735,16.533L2.735,55.26C2.735,62.383 8.515,68.171 15.642,68.171L215.536,68.171C222.662,68.171 228.449,62.383 228.449,55.26L228.449,16.533ZM441.445,15.649C441.445,8.517 435.658,2.737 428.53,2.737L274.369,2.737C267.241,2.737 261.46,8.517 261.46,15.649L261.46,54.376C261.46,61.499 267.241,67.287 274.369,67.287L428.53,67.287C435.658,67.287 441.445,61.499 441.445,54.376L441.445,15.649Z"/>
    </g>
</svg>
