<?xml version="1.0" encoding="UTF-8" standalone="no"?>
<!DOCTYPE svg PUBLIC "-//W3C//DTD SVG 1.1//EN" "http://www.w3.org/Graphics/SVG/1.1/DTD/svg11.dtd">
<svg width="100%" height="100%" viewBox="0 0 448 328" version="1.1" xmlns="http://www.w3.org/2000/svg" xmlns:xlink="http://www.w3.org/1999/xlink" xml:space="preserve" xmlns:serif="http://www.serif.com/" style="fill-rule:evenodd;clip-rule:evenodd;stroke-linejoin:round;stroke-miterlimit:2;">
    <g transform="matrix(1,0,0,1,-1.12969,-2.73935)">
        <path d="M358.517,241.257C383.063,241.257 402.991,261.185 402.991,285.73C402.991,310.276 383.063,330.204 358.517,330.204C333.972,330.204 314.044,310.276 314.044,285.73C314.044,261.185 333.972,241.257 358.517,241.257ZM45.558,241.302C70.079,241.302 89.986,261.21 89.986,285.73C89.986,310.251 70.079,330.159 45.558,330.159C21.037,330.159 1.13,310.251 1.13,285.73C1.13,261.21 21.037,241.302 45.558,241.302ZM202.057,241.357C226.548,241.357 246.431,261.24 246.431,285.73C246.431,310.221 226.548,330.104 202.057,330.104C177.567,330.104 157.684,310.221 157.684,285.73C157.684,261.24 177.567,241.357 202.057,241.357ZM295.481,140.966C295.481,133.835 289.693,128.054 282.566,128.054L19.442,128.054C12.315,128.054 6.537,133.835 6.537,140.966L6.537,179.693C6.537,186.816 12.315,192.605 19.442,192.605L282.566,192.605C289.693,192.605 295.481,186.816 295.481,179.693L295.481,140.966ZM449,15.651C449,8.52 443.206,2.739 436.083,2.739L19.263,2.739C12.14,2.739 6.359,8.52 6.359,15.651L6.359,54.378C6.359,61.501 12.14,67.29 19.263,67.29L436.083,67.29C443.206,67.29 449,61.501 449,54.378L449,15.651Z"/>
    </g>
</svg>
