<?xml version="1.0" encoding="UTF-8" standalone="no"?>
<!DOCTYPE svg PUBLIC "-//W3C//DTD SVG 1.1//EN" "http://www.w3.org/Graphics/SVG/1.1/DTD/svg11.dtd">
<svg width="100%" height="100%" viewBox="0 0 440 338" version="1.1" xmlns="http://www.w3.org/2000/svg" xmlns:xlink="http://www.w3.org/1999/xlink" xml:space="preserve" xmlns:serif="http://www.serif.com/" style="fill-rule:evenodd;clip-rule:evenodd;stroke-linejoin:round;stroke-miterlimit:2;">
    <g transform="matrix(1,0,0,1,-0.96292,-1.35776)">
        <path d="M44.556,251.853C68.513,251.853 87.963,271.303 87.963,295.26C87.963,319.217 68.513,338.667 44.556,338.667C20.599,338.667 1.149,319.217 1.149,295.26C1.149,271.303 20.599,251.853 44.556,251.853ZM440.445,275.885C440.445,268.753 434.654,262.973 427.53,262.973L125.002,262.973C117.879,262.973 112.098,268.753 112.098,275.885L112.098,314.612C112.098,321.735 117.879,327.523 125.002,327.523L427.53,327.523C434.654,327.523 440.445,321.735 440.445,314.612L440.445,275.885ZM44.556,126.268C68.615,126.268 88.148,145.802 88.148,169.861C88.148,193.921 68.615,213.454 44.556,213.454C20.496,213.454 0.963,193.921 0.963,169.861C0.963,145.802 20.496,126.268 44.556,126.268ZM440.445,150.496C440.445,143.365 434.654,137.584 427.53,137.584L125.002,137.584C117.879,137.584 112.098,143.365 112.098,150.496L112.098,189.223C112.098,196.346 117.879,202.135 125.002,202.135L427.53,202.135C434.654,202.135 440.445,196.346 440.445,189.223L440.445,150.496ZM44.556,1.358C68.398,1.358 87.755,20.715 87.755,44.557C87.755,68.399 68.398,87.756 44.556,87.756C20.714,87.756 1.357,68.399 1.357,44.557C1.357,20.715 20.714,1.358 44.556,1.358ZM440.445,25.181C440.445,18.05 434.654,12.269 427.53,12.269L125.002,12.269C117.879,12.269 112.098,18.05 112.098,25.181L112.098,63.908C112.098,71.031 117.879,76.82 125.002,76.82L427.53,76.82C434.654,76.82 440.445,71.031 440.445,63.908L440.445,25.181Z"/>
    </g>
</svg>
