<?xml version="1.0" encoding="UTF-8" standalone="no"?>
<!DOCTYPE svg PUBLIC "-//W3C//DTD SVG 1.1//EN" "http://www.w3.org/Graphics/SVG/1.1/DTD/svg11.dtd">
<svg width="100%" height="100%" viewBox="0 0 143 143" version="1.1" xmlns="http://www.w3.org/2000/svg" xmlns:xlink="http://www.w3.org/1999/xlink" xml:space="preserve" xmlns:serif="http://www.serif.com/" style="fill-rule:evenodd;clip-rule:evenodd;stroke-linecap:round;stroke-miterlimit:7;">
    <g transform="matrix(1,0,0,1,3.57528,3.55831)">
        <path d="M33.796,101.951C42.821,110.912 55.023,115.942 67.745,115.942C94.358,115.942 115.93,94.37 115.93,67.756L131.993,67.756C131.993,103.24 103.228,132.005 67.745,132.005C50.764,132.005 34.476,125.282 22.439,113.309L11.171,124.577L12.046,91.322L45.302,90.446L33.796,101.951ZM101.786,33.66C92.751,24.64 80.509,19.575 67.744,19.575C41.131,19.575 19.558,41.148 19.558,67.761L3.496,67.761C3.496,32.278 32.261,3.513 67.744,3.513C84.769,3.513 101.098,10.27 113.143,22.302L124.698,10.748L123.823,44.003L90.567,44.879L101.786,33.66Z" style="stroke:black;stroke-width:2px;"/>
    </g>
</svg>
